<mxfile host="app.diagrams.net" agent="Mozilla/5.0 (Windows NT 10.0; Win64; x64) AppleWebKit/537.36 (KHTML, like Gecko) Chrome/139.0.0.0 Safari/537.36" version="28.2.0">
  <diagram id="C5RBs43oDa-KdzZeNtuy" name="Page-1">
    <mxGraphModel dx="3080" dy="785" grid="1" gridSize="10" guides="1" tooltips="1" connect="1" arrows="1" fold="1" page="1" pageScale="1" pageWidth="827" pageHeight="1169" math="0" shadow="0">
      <root>
        <mxCell id="WIyWlLk6GJQsqaUBKTNV-0" />
        <mxCell id="WIyWlLk6GJQsqaUBKTNV-1" parent="WIyWlLk6GJQsqaUBKTNV-0" />
        <mxCell id="X0DREwgXzSUtH7TEnKiw-41" style="edgeStyle=orthogonalEdgeStyle;rounded=0;orthogonalLoop=1;jettySize=auto;html=1;entryX=0.5;entryY=0;entryDx=0;entryDy=0;" parent="WIyWlLk6GJQsqaUBKTNV-1" source="X0DREwgXzSUtH7TEnKiw-1" target="X0DREwgXzSUtH7TEnKiw-39" edge="1">
          <mxGeometry relative="1" as="geometry">
            <Array as="points">
              <mxPoint x="-1252" y="220" />
              <mxPoint x="-1252" y="220" />
            </Array>
          </mxGeometry>
        </mxCell>
        <mxCell id="X0DREwgXzSUtH7TEnKiw-1" value="&lt;font style=&quot;font-size: 25px;&quot;&gt;自由职业者&lt;/font&gt;" style="strokeWidth=2;html=1;shape=mxgraph.flowchart.terminator;whiteSpace=wrap;" parent="WIyWlLk6GJQsqaUBKTNV-1" vertex="1">
          <mxGeometry x="-1335.25" y="140" width="170" height="60" as="geometry" />
        </mxCell>
        <mxCell id="X0DREwgXzSUtH7TEnKiw-11" style="edgeStyle=orthogonalEdgeStyle;rounded=0;orthogonalLoop=1;jettySize=auto;html=1;entryX=0.5;entryY=0;entryDx=0;entryDy=0;" parent="WIyWlLk6GJQsqaUBKTNV-1" source="X0DREwgXzSUtH7TEnKiw-2" target="X0DREwgXzSUtH7TEnKiw-9" edge="1">
          <mxGeometry relative="1" as="geometry" />
        </mxCell>
        <mxCell id="X0DREwgXzSUtH7TEnKiw-2" value="&lt;font style=&quot;font-size: 25px;&quot;&gt;选择需要申请加入的组织&lt;/font&gt;" style="rounded=0;whiteSpace=wrap;html=1;" parent="WIyWlLk6GJQsqaUBKTNV-1" vertex="1">
          <mxGeometry x="-1340.25" y="400" width="175" height="90" as="geometry" />
        </mxCell>
        <mxCell id="X0DREwgXzSUtH7TEnKiw-13" style="edgeStyle=orthogonalEdgeStyle;rounded=0;orthogonalLoop=1;jettySize=auto;html=1;entryX=0.5;entryY=0;entryDx=0;entryDy=0;" parent="WIyWlLk6GJQsqaUBKTNV-1" source="X0DREwgXzSUtH7TEnKiw-9" target="X0DREwgXzSUtH7TEnKiw-12" edge="1">
          <mxGeometry relative="1" as="geometry" />
        </mxCell>
        <mxCell id="X0DREwgXzSUtH7TEnKiw-9" value="&lt;font style=&quot;font-size: 25px;&quot;&gt;填写申请理由&lt;/font&gt;" style="rounded=0;whiteSpace=wrap;html=1;" parent="WIyWlLk6GJQsqaUBKTNV-1" vertex="1">
          <mxGeometry x="-1362" y="540" width="217.5" height="60" as="geometry" />
        </mxCell>
        <mxCell id="X0DREwgXzSUtH7TEnKiw-12" value="&lt;font style=&quot;font-size: 25px;&quot;&gt;提交申请&lt;/font&gt;" style="rounded=0;whiteSpace=wrap;html=1;" parent="WIyWlLk6GJQsqaUBKTNV-1" vertex="1">
          <mxGeometry x="-1320.75" y="670" width="135" height="65" as="geometry" />
        </mxCell>
        <mxCell id="X0DREwgXzSUtH7TEnKiw-14" value="&lt;font style=&quot;font-size: 25px;&quot;&gt;组织管理员审批&lt;/font&gt;" style="strokeWidth=2;html=1;shape=mxgraph.flowchart.decision;whiteSpace=wrap;" parent="WIyWlLk6GJQsqaUBKTNV-1" vertex="1">
          <mxGeometry x="-1370.75" y="820" width="235" height="180" as="geometry" />
        </mxCell>
        <mxCell id="X0DREwgXzSUtH7TEnKiw-15" style="edgeStyle=orthogonalEdgeStyle;rounded=0;orthogonalLoop=1;jettySize=auto;html=1;entryX=0.5;entryY=0;entryDx=0;entryDy=0;entryPerimeter=0;" parent="WIyWlLk6GJQsqaUBKTNV-1" source="X0DREwgXzSUtH7TEnKiw-12" target="X0DREwgXzSUtH7TEnKiw-14" edge="1">
          <mxGeometry relative="1" as="geometry" />
        </mxCell>
        <mxCell id="X0DREwgXzSUtH7TEnKiw-20" value="" style="endArrow=classic;html=1;rounded=0;exitX=0.231;exitY=0.74;exitDx=0;exitDy=0;exitPerimeter=0;entryX=0.5;entryY=0;entryDx=0;entryDy=0;entryPerimeter=0;" parent="WIyWlLk6GJQsqaUBKTNV-1" source="X0DREwgXzSUtH7TEnKiw-14" target="X0DREwgXzSUtH7TEnKiw-26" edge="1">
          <mxGeometry width="50" height="50" relative="1" as="geometry">
            <mxPoint x="-1328.25" y="980" as="sourcePoint" />
            <mxPoint x="-1410" y="1090" as="targetPoint" />
          </mxGeometry>
        </mxCell>
        <mxCell id="X0DREwgXzSUtH7TEnKiw-23" value="&lt;font style=&quot;font-size: 25px;&quot;&gt;通过&lt;/font&gt;" style="edgeLabel;html=1;align=center;verticalAlign=middle;resizable=0;points=[];" parent="X0DREwgXzSUtH7TEnKiw-20" vertex="1" connectable="0">
          <mxGeometry x="0.0533" y="6" relative="1" as="geometry">
            <mxPoint x="-1" as="offset" />
          </mxGeometry>
        </mxCell>
        <mxCell id="X0DREwgXzSUtH7TEnKiw-22" value="" style="endArrow=classic;html=1;rounded=0;exitX=0.839;exitY=0.693;exitDx=0;exitDy=0;exitPerimeter=0;entryX=0.5;entryY=0;entryDx=0;entryDy=0;entryPerimeter=0;" parent="WIyWlLk6GJQsqaUBKTNV-1" source="X0DREwgXzSUtH7TEnKiw-14" target="X0DREwgXzSUtH7TEnKiw-31" edge="1">
          <mxGeometry width="50" height="50" relative="1" as="geometry">
            <mxPoint x="-968.25" y="1010" as="sourcePoint" />
            <mxPoint x="-1015.75" y="1110" as="targetPoint" />
          </mxGeometry>
        </mxCell>
        <mxCell id="X0DREwgXzSUtH7TEnKiw-24" value="&lt;font style=&quot;font-size: 25px;&quot;&gt;拒绝&lt;/font&gt;" style="edgeLabel;html=1;align=center;verticalAlign=middle;resizable=0;points=[];" parent="X0DREwgXzSUtH7TEnKiw-22" vertex="1" connectable="0">
          <mxGeometry x="-0.0811" relative="1" as="geometry">
            <mxPoint x="1" as="offset" />
          </mxGeometry>
        </mxCell>
        <mxCell id="X0DREwgXzSUtH7TEnKiw-26" value="&lt;font style=&quot;font-size: 25px;&quot;&gt;成为组织内部成员&lt;/font&gt;" style="strokeWidth=2;html=1;shape=mxgraph.flowchart.terminator;whiteSpace=wrap;" parent="WIyWlLk6GJQsqaUBKTNV-1" vertex="1">
          <mxGeometry x="-1537" y="1110" width="222.5" height="90" as="geometry" />
        </mxCell>
        <mxCell id="X0DREwgXzSUtH7TEnKiw-31" value="&lt;font style=&quot;font-size: 25px;&quot;&gt;保持自由职业者状态&lt;/font&gt;" style="strokeWidth=2;html=1;shape=mxgraph.flowchart.terminator;whiteSpace=wrap;" parent="WIyWlLk6GJQsqaUBKTNV-1" vertex="1">
          <mxGeometry x="-1144.5" y="1120" width="245.25" height="110" as="geometry" />
        </mxCell>
        <mxCell id="X0DREwgXzSUtH7TEnKiw-40" style="edgeStyle=orthogonalEdgeStyle;rounded=0;orthogonalLoop=1;jettySize=auto;html=1;entryX=0.5;entryY=0;entryDx=0;entryDy=0;" parent="WIyWlLk6GJQsqaUBKTNV-1" source="X0DREwgXzSUtH7TEnKiw-39" target="X0DREwgXzSUtH7TEnKiw-2" edge="1">
          <mxGeometry relative="1" as="geometry" />
        </mxCell>
        <mxCell id="X0DREwgXzSUtH7TEnKiw-39" value="&lt;font style=&quot;font-size: 25px;&quot;&gt;浏览组织列表&lt;/font&gt;" style="rounded=0;whiteSpace=wrap;html=1;" parent="WIyWlLk6GJQsqaUBKTNV-1" vertex="1">
          <mxGeometry x="-1340.25" y="280" width="176" height="60" as="geometry" />
        </mxCell>
      </root>
    </mxGraphModel>
  </diagram>
</mxfile>
